<svg version="1" xmlns="http://www.w3.org/2000/svg" width="1333.333" height="1333.333" viewBox="0 0 1000.000000 1000.000000"><path d="M473.9.4c-.2.2-5.3.7-11.4 1-6 .4-11.9.9-13 1.1-1.1.2-4.7.7-8 1-7.3.7-9.8 1-25 3.6-15.4 2.6-14.7 2.5-23.5 4.4-4.1 1-9.3 2.1-11.5 2.5-7.7 1.6-35.1 9.9-49 14.8-39.2 13.9-75.7 32.3-110.4 55.7C130.7 145.8 62.9 233.8 27 337.6c-4.5 13-13.2 43.4-14.4 50.4-.2 1.4-1.1 5.4-1.9 9-2.9 12.3-5.2 27.1-8.2 51.9-2.6 22.6-2.7 85.8 0 101.1.2 1.4.7 5.2 1 8.5 1.8 18.6 6.4 43.3 12.5 67 14 54.8 38.9 109.4 71.7 157.1 9.4 13.7 28 37.9 35.3 45.8 1.5 1.7 5.2 5.8 8.2 9 45 49.9 107.7 94.8 169.3 121 6.1 2.6 11.9 5.1 13 5.6 10.4 4.7 42.4 15.2 61.4 20 15.4 4 41 9.3 50.6 10.5 7.2.9 11.6 1.5 15 2 1.7.2 6 .7 9.6 1 3.6.4 8.6.9 11 1.1 7.9.9 63.2 1.1 72.4.3 5-.4 12.4-1.1 16.5-1.5 8.8-.8 10.8-1 17.5-1.9 5.3-.7 31.6-5.2 35-6 1.1-.2 5.2-1.1 9-2 53.5-11.7 114.7-37.8 162.5-69.3 47-31 90.5-71.4 122.8-114.2 4-5.2 7.6-10 8-10.5 5.5-6.9 22.6-33.5 31.2-48.5 6.7-11.8 23.1-46.2 28.5-60 15.7-39.6 26.1-80.2 31.4-121.8 3-23.3 3.6-34.3 3.6-64.2 0-26.9-.9-44.1-3-58.5-.3-1.7-.9-6.8-1.5-11.5s-1.3-9.2-1.5-10c-.2-.8-.7-3.5-1-6-.9-6.3-6.1-29.4-9.6-42.7-13.3-50.5-38-104.8-68.1-149.6-6.5-9.6-24.4-33.5-30.5-40.7-53.4-62.5-113.4-107.4-185.8-139-24.8-10.8-66.7-24.7-83.5-27.6-1.4-.3-3.3-.7-4.2-1-1-.3-3-.7-4.5-1-1.6-.3-4.4-.9-6.3-1.4-1.9-.5-9.1-1.8-16-2.9-15.1-2.5-21.2-3.3-34-4.6-3-.3-7.7-.8-10.5-1.1-5.8-.6-65.1-1.5-65.6-1zm65.5 21c2.2.2 6.9.7 10.5 1.1C577.3 25 613 32.4 642 41.4c180.2 56 311.6 213 334.5 399.6.3 2.5.7 6.1 1 8 3.1 26.7 2.6 85.9-1 109-.3 1.9-.8 5.5-1.1 8-1 8.6-3.5 23.5-5.5 32.5-1.1 4.9-2.2 10.1-2.5 11.5-1.2 6.2-4.9 19.7-9.1 32.9-21 67.9-58.8 132.8-107.3 184.5-4.5 4.8-18.9 19.1-28.4 28.1-4.9 4.7-21.8 18.7-31.1 25.8-5.5 4.2-10.4 8-11 8.5-3.4 2.7-26.8 17.9-36.5 23.7-15.3 9-38.6 20.8-54 27.3-6.9 2.9-13.4 5.7-14.5 6.2-19.1 8.1-67 21.8-85.5 24.5-2.4.4-4.7.8-5 1-.3.1-2.7.6-5.5.9-2.7.4-5.7.9-6.5 1.1-.8.2-3.7.6-6.5 1-7.2.8-13.6 1.6-16.5 2.1-16.4 2.5-84.1 2.5-100 0-1.4-.3-4.7-.7-7.5-1-13.4-1.6-29.1-4.1-39-6.2-7.6-1.7-7.6-1.7-15-3.4-2.7-.6-5.7-1.3-6.5-1.5-.8-.2-8-2.2-16-4.5-74.6-21.6-144.4-62.2-200-116.4-39.4-38.5-69.9-79.7-93.8-126.9-7.9-15.6-8.7-17.2-16.7-36.2C43.2 652.7 31 609 26 576c-.6-4.1-1.3-8.5-1.5-9.6-.2-1.2-.6-4.6-1-7.5-.3-3-.8-6.8-1-8.4-2.8-21.6-2.7-77.7 0-101.5 1.9-16.2 6.2-42.4 8.8-53.5.3-1.1 1.3-5.2 2.2-9 .9-3.9 1.8-7.7 2-8.5.2-.8 1.9-6.9 3.9-13.5 27.7-94.7 84.1-178.1 162.6-240.9 5.2-4.2 4.3-3.5 14-10.7 58-43.1 133.3-75 204-86.3 1.9-.3 4.9-.8 6.5-1.1 6.7-1.1 9.3-1.5 15-2 3.3-.4 7.1-.8 8.5-1.1 1.4-.2 7.2-.7 13-1 5.8-.4 10.7-.8 10.9-1 .5-.5 60.9.4 65.5 1z"/><path d="M479.1 49.5c-7.3 1-10.1 2.7-6.3 3.9 1.1.4 2.4.6 2.8.4.5-.1 1.9.1 3.1.5 2.4.9 3.9 4.7 4.8 12.2.3 2.7.8 6.3 1 8 1.2 8.3 2 18.9 2 26.5 0 9.8-1.5 12.9-7.5 16-4.2 2.1-12.1 3.8-16.8 3.4-12-.9-15.8-6.4-17.7-26.1-.3-3.4-.7-7-.9-8-.2-1-.7-5.6-1.1-10.3-.5-4.7-.9-9.4-1-10.5-.4-4.4 1.6-7.4 5.6-8.5 2.4-.7 3.9-1.7 3.9-2.7 0-1.3-1-1.5-6.2-.9-9.9.9-18.2 1.8-19.8 2.2-.8.1-2.3.3-3.3.3-2.6.1-1.8 3.6.8 3.6 6.3.2 7.6 2.5 9 15 .6 5.9.9 8.5 1.9 17.5.3 2.5.8 7 1.1 10 1.2 11.6 4.6 17.4 12.2 21.1 4 2 6.3 2.3 14.3 2.3 17.8-.1 28.4-5.4 31.4-15.5.8-2.7 1.3-6.6 1.1-8.6-.3-2.1-.7-5.6-.9-7.8-.2-2.2-1.2-11.3-2.2-20.1-1.6-15-1.7-16.4-.2-18.6.9-1.4 3.1-2.8 4.8-3.2 1.9-.3 3-1.1 2.7-1.8-.5-1.6-8.5-1.7-18.6-.3zM629.3 68.3c-.4.6-.1 1.3.5 1.5.6.2 2.3 1.3 3.8 2.4 2.3 1.9 2.6 2.6 2 6.5-.3 2.4-1.3 6.8-2.1 9.8l-1.6 5.3-3.2-2.9c-5.5-5.1-11.4-7.4-18.7-7.4-7.2.1-10.6 1.5-15.9 6.7-5.8 5.6-8.6 13-8.6 22.3 0 6.9.4 8.7 2.8 12.7 3 5.1 6.9 8.4 12 9.9 4.6 1.5 13.3 1.1 16.7-.6 3.9-2 4.1-1.9 2.9 1.2-.5 1.4-.6 3-.1 3.5.4.4 4.1 1.7 8.2 2.9 8.5 2.3 11.3 1.4 6.9-2.4-1.5-1.2-2.9-3-3.2-3.9-.3-.9 1.2-8.1 3.4-16 2.3-7.9 4.2-15 4.4-15.8.2-.8 2.4-8.6 4.9-17.3 5-17.2 5.2-18.6 3.4-18.8-8.1-.7-17.9-.5-18.5.4zm-6.8 23.3c4.5 3 7.4 6.3 7.4 8.4 0 .8-1.7 7.3-3.8 14.5l-3.8 13-4.2 2.2c-5.1 2.6-12.4 2.5-16.5-.2-9-5.9-7.7-25.2 2.5-35.7 4.2-4.5 4.9-4.8 9.6-4.8 3.7 0 6 .7 8.8 2.6zM519.3 70.7c-5 .3-7.3.8-7.7 1.8-.4 1 .7 1.8 3.5 2.5 3.3.9 4.1 1.6 4.6 4.3.4 1.8.7 3.4.6 3.7-.1.3-.4 4-.8 8.3-2 24.5-2.3 25.4-8.9 25.9-1.8.2-2.6.8-2.6 2 0 1.4.9 1.8 4.3 1.9 2.3 0 5.1.2 6.2.4 1.1.2 5.4.7 9.6 1 9.1.7 11.3-.7 5-3.2-5.6-2.2-5.7-3-3.5-26.3.4-3.6.7-7.1.7-7.8.1-3.5 14.4-9.3 20.6-8.3 3.6.6 7.1 4.3 7.3 7.7.2 2.4-1.1 16.6-2.2 25.9-.9 7.5-3.1 10.5-7.5 10.5-2.7 0-4.4 3-1.7 3.1.9 0 2.6.2 3.6.4 1.1.2 5.6.6 10 1 4.5.3 9.3.8 10.9 1.1 2.2.5 2.7.2 2.7-1.5 0-1.4-.6-2.1-2-2.1-1.1 0-2.9-.9-4.1-2.1-1.9-1.9-2-2.8-1.4-11 .3-4.9.8-9.9 1.1-11.2.2-1.2.5-5.7.6-9.9.2-9.2-1.3-12.1-7.8-15-7.1-3.1-14.4-2.6-22.7 1.5l-6.9 3.4.5-3.7c.4-3.3.2-3.9-1.7-4.4-1.1-.3-2.3-.5-2.6-.4-.3.1-3.7.4-7.7.5zM363.4 104.9c-10.4 4.7-12.5 17.5-3.9 25 6.6 5.7 15.9 5.1 21.3-1.5 10.3-12.4-2.8-30-17.4-23.5zM673.4 108c-13 1.9-23.6 16.4-22.1 30.5 1.8 17.8 21.7 28.8 36.7 20.4 3.4-1.9 3.8-2.5 2.7-3.7-1.2-1.1-2-1-5.6.9-7.9 4.1-18.1.4-22.3-8-1.9-3.9-2-5-1-10.1.6-3.2 1.9-7.6 2.9-9.8l1.8-3.9 10.5 5c5.8 2.7 13.3 6.2 16.7 7.8l6.2 2.8 1.1-3.5c4.9-14.7-10.7-30.8-27.6-28.4zm14.3 7.4c3.4 2.2 5.3 6 5.3 10.5 0 5.4-1.1 5.5-10.6 1.1-4.9-2.3-9.9-4.6-11.1-5.1-3-1.1-2.9-1.9 1-5.6 4.9-4.8 9.2-5 15.4-.9zM295.5 124.1c-3.1 1.6-7.5 7.9-8.8 12.6-.6 2.4-1.4 4.3-1.7 4.3-.3 0-1.4-1.4-2.4-3.1-1-1.6-2.2-2.9-2.7-2.7-.5.2-4 2.8-7.8 5.8-8.7 6.9-8.8 8.3-.4 6.5 3.9-.9 4.7-.1 14.8 16.3 8.4 13.5 9.4 17.2 5.5 20.4-1.3 1-2 2.4-1.6 3.3.4 1.2 2.8.2 11.3-5.1 15.1-9.3 14.6-8.9 13-10.2-.8-.7-1.8-.7-2.7-.2-2.6 1.7-6.6 1.1-8.7-1.3-1.1-1.2-5-7.1-8.7-13.2-5.9-9.5-6.7-11.4-6.2-14.4.7-4.8 4.2-7.8 9.4-8.4 4.9-.5 8.2-3 8.2-6.3 0-4.6-5.4-6.8-10.5-4.3zM717.2 130.2c-.6.6.1 2 1.9 3.8 3.5 3.5 3.5 5.3.1 10.7-11.3 17.9-13.6 21.4-15.3 23.2-2.1 2.3-5.9 2.7-8.9 1.1-2.7-1.4-3.7.8-1.4 2.9 4.4 4.1 21.7 14.2 22.6 13.3.7-.7.3-1.8-1.1-3.3-4.4-4.8-4.1-5.8 6.7-22.4 3.6-5.5 6.6-10.1 6.7-10.3.2-.2 1.9-.5 3.9-.9 4.9-.8 9 1.1 10.9 5.3 1.8 3.7 5.5 5.8 8.4 4.7 2.4-.9 4.2-3.4 3.9-5.3-.9-6-7.9-9.5-17.6-8.8-3.3.2-6 .2-6 0 0-.3.9-1.9 2-3.7l1.9-3.1-8.8-4.1c-5.6-2.6-9.3-3.7-9.9-3.1zM244.1 161.2c-6.8 1.9-14 8.3-16.8 14.8-4.5 10.6.3 24.6 11 31.8 8.6 5.9 16.9 6.8 25.2 2.8 10.1-4.8 15-12.1 15.4-22.5.2-5.5.1-5.9-1.9-5.4-1.6.4-2 1.3-2 4.9 0 6-2.1 10.6-6.1 13.7-8.3 6.2-16.3 4.9-25.4-4l-5.5-5.4 4.2-3.5c2.4-2 6.1-5.1 8.3-6.9 2.2-1.8 5.4-4.4 7-5.6 1.7-1.3 4.3-3.6 6-5.1 2.9-2.7 2.9-2.7 1-4.9-4.5-5-12.8-6.9-20.4-4.7zm9.3 8.8c2 1.9 2 1.9-.7 4-1.5 1.2-3.3 2.7-4 3.4-.6.6-3.9 3.3-7.1 6l-6 4.7-1.2-2.3c-2.4-4.7-2.1-10.4.9-14.1 4.5-5.6 13.4-6.5 18.1-1.7zM481.8 163.5c-.2.1-4.2.5-8.9.8-4.7.4-11.9 1.1-16 1.7-4.1.6-8.9 1.3-10.8 1.5-1.8.2-4.1.7-5 .9-.9.3-3.4.7-5.6 1.1-29.9 4.4-80.1 23.7-110 42.3-15.2 9.5-28.3 18.8-39.5 28.1-3 2.5-6.8 5.7-8.5 7.1-6.1 5.1-28.2 27.8-35 36-32.8 39.5-55.7 83.4-67.8 130-4.7 17.7-6.7 28.1-9.2 47.2-2.5 18.6-2.5 66.4-.1 79.5.4 1.7 1.8 11.7 2.1 13.8 2 17.4 10.2 47.1 19 69.5 37.2 93.9 113 165.5 208.6 197 14.1 4.6 38.1 10.7 46.4 11.7 2.1.2 4.2.6 4.5.8.4.2 3.8.7 7.6 1 3.8.4 7.2.9 7.5 1.1 3.8 2.2 74.9 2.2 78.9-.1.3-.1 3-.6 6-.9 9.5-1.1 27.1-4.6 39-7.7 80.4-21.2 149.6-70.7 195.9-140.1 3.9-5.9 7.1-10.9 7.1-11.2 0-.2 1.9-3.5 4.2-7.2 6.1-10.1 17.9-35.1 23.1-49 14.2-38 20.9-74.8 21.1-115.4.1-21.8-.5-32.5-2.4-46-.6-4.1-1.3-9.1-1.5-11-.5-3.6-.7-4.5-2.6-14-1-4.9-4.9-20.2-8.4-33-4.7-16.8-18.7-48.4-29.9-67.3-2.5-4.3-4.6-8.2-4.6-8.7s-.3-1-.7-1.2c-.5-.2-3.5-4.4-6.7-9.3-5.1-7.7-10.2-14.8-16.6-22.9-11.1-14.1-32.4-35.8-48.4-49.4-12.6-10.7-37.2-27.2-54.6-36.6-15.9-8.6-47.1-22-57.5-24.6-1.6-.4-6.9-1.9-11.6-3.3-8.3-2.5-29.4-7.1-37.4-8.2-2.2-.3-4.9-.7-6-1-1.1-.2-4.7-.7-8-1-3.3-.3-7.6-.8-9.5-1.1-3.6-.6-47.6-1.4-48.2-.9zm49.2 21c1.9.2 5.3.7 7.6 1 2.2.3 6 .8 8.3 1.1 2.4.3 9.8 1.6 16.5 3 60.8 12.3 115.5 41.7 160.1 86.1 43.2 42.8 72.8 96.7 85.9 155.9 5.3 23.8 7.1 41.8 7.1 68.4-.1 20.5-.8 31.5-3.1 46.5-12.5 82.9-56.2 156.2-122.9 206.4-19.8 14.9-42.1 28.1-61.5 36.5-3.6 1.5-7.9 3.4-9.6 4.2-12.8 5.7-38.8 13.5-57.9 17.2-10 2-11.5 2.3-28 4.4-15.3 1.9-61.2 1.5-72.4-.7-1.2-.2-4.4-.7-7-1-2.5-.3-9.3-1.4-15.1-2.6-106.4-21.2-194.1-94.3-233.9-195.1-4.2-10.5-11.1-31.9-12.6-38.6-3-13.7-5.5-26.8-6-31.2-.3-3-.8-6.2-1-7-1.9-7.5-2.6-50.3-1.2-66.5 1.5-16.5 4.5-34 9.2-53.5 5.7-23.6 19.6-56.4 34.5-81.5 44.8-75.3 120.8-129.6 206.1-147.4 10.5-2.2 15.3-3 21.2-3.7 2.3-.3 4.3-.7 4.7-.9.3-.2 5.3-.6 11-1 5.8-.4 10.7-.9 10.9-1.1.5-.5 44.8.5 49.1 1.1z"/><path d="M491.2 221.1c-5.6 2.8-9.9 8.1-11.1 13.8-.7 3.5-1.8 5.3-4.8 7.5-11.6 9.1-22.7 22.8-30.9 38.2-8.5 16-18.1 42.1-23.9 64.9-1.6 6.1-2.9 11.1-3.1 11.3-.1.2-6-1.2-13.1-3.2-18.4-5.1-30.1-7.5-48.8-10.2-8.8-1.3-36.2-1.2-44.5.2-11.2 1.8-21.6 5.6-28.7 10.6-6.3 4.4-7 5.1-11.4 11.8-9.3 14-8 34.5 3.6 58 9.9 20 25 40.1 47.3 62.7l13 13.3-11.7 11.8c-31.4 32.1-48.4 56.9-55.6 81.9-4.2 14.2-3.6 27.3 1.7 37.7 3.4 6.7 11.3 14.1 19.1 18 9.5 4.6 25.3 8.3 37.2 8.6 1.5 0 2.5 1.1 3.3 3.4 1.9 5.1 4.9 8.4 10 10.9 8.2 4 16.1 3 23.1-2.8 2.8-2.3 7.2-11.2 6.4-13-.5-1.5 0-1.7 12.9-4.4 7.7-1.7 24.2-5.8 34.9-8.8 1.2-.4 2 1.5 3.8 8.9 5.3 21.7 15.7 50.3 24.4 66.8 12.7 23.9 29.4 40.8 44.8 45.1 34.7 9.7 67.4-27.8 87.9-100.6 1.5-5.5 3.3-12.4 4-15.3.7-2.8 1.4-5.2 1.8-5.2.3 0 6.2 1.6 13.2 3.5 13.9 3.8 33 7.9 43 9.1 3.6.4 6.8.9 7.3 1 .4.1 1.1.2 1.6.3.5 0 1.2 1.2 1.5 2.6.3 1.3 2 4 3.6 5.9 10 11.3 28 8.7 34.1-5.1 1.7-3.7 2.4-4.2 6.2-4.8 16.2-2.7 30.8-11.9 37.1-23.4 15.1-27.8-4.7-71.7-55.1-121.8L665 500l10.3-10.3c13.8-14 18.2-18.7 26.2-28.7 30.5-38.1 40.7-70.1 29.3-92.4-5.2-10.2-18.2-19.5-32.3-23-10.4-2.6-11.7-2.8-27.5-3.1-22.4-.4-48.8 3.5-77.5 11.5-5.9 1.7-10.9 2.9-11.1 2.8-.1-.2-1.6-5.7-3.3-12.3-7.8-31-18.6-57.3-31.9-78-4.9-7.6-22.3-25.5-24.7-25.5-.8 0-1.5-.6-1.6-1.3-.3-5.2-3.4-12-7.1-15.4-3-2.8-9.9-5.3-14.7-5.3-2 0-5.5 1-7.9 2.1zm-5.6 33c7.8 8.2 21.1 8.1 29.3-.3l3-3 2.9 2.1c4.4 3.1 12.9 12.8 17.7 20.1 8.9 13.6 16.6 30.4 23.4 51 4 12 10.5 36 9.9 36.4-.2.1-5.7 2.2-12.3 4.6-14 5.1-38.2 15-50.7 20.9l-8.8 4-8.6-4c-17-7.8-39.9-17.1-56.4-22.9-3.6-1.2-6.6-2.4-6.8-2.5-.3-.3 3.1-14.3 5.7-23.5 8.6-29.4 19.5-53.5 31.7-69.6 4.9-6.5 14.8-16.4 16.4-16.4.3 0 1.9 1.4 3.6 3.1zM355.5 354.3c1.1.2 4.3.8 7 1.2 14.9 2.1 49.9 10.5 51.8 12.4.4.4-.4 7.2-1.7 15.2-3 17.1-3.5 20.8-4.2 27.4-.2 2.7-.6 5.9-.9 7-.2 1.1-.7 5.1-1.1 9-.3 3.8-.7 7.9-.9 9-.1 1.1-.3 3.7-.4 5.7-.1 3.4-.7 4-8.3 9.4-12.2 8.4-29.8 22-42.2 32.3-5.9 5-11.1 9.1-11.5 9.1-1.3 0-21.3-20.3-30-30.5-18.1-21.1-31.9-43.6-35.5-58-.4-1.7-1-3.9-1.3-5-.2-1.1-.6-5.2-.8-9.2-.7-18.9 12-30.9 37.3-35.3 4.8-.8 39.1-.6 42.7.3zm335.3.7c33.5 6.8 42.2 28.5 25.5 64-5.3 11.2-16.1 27.1-28.3 41.4-8.7 10.3-29.9 31.6-31.5 31.6-.5 0-2.6-1.5-4.5-3.3-6.4-6.1-30.8-25.3-43.9-34.7-12.6-8.9-13.1-9.4-13.2-12.9 0-2-.2-4.3-.3-5.1-.2-.8-.7-5-1.1-9.3-.3-4.3-.8-8.8-1-10-.2-1.2-.6-4.2-.9-6.7-1-7.9-1.6-12.4-2.1-15-.2-1.4-.7-4.1-1-6-.3-1.9-1.3-7.2-2.1-11.8-.9-4.7-1.3-8.7-.8-9.2 2.9-2.7 43.5-12 60-13.6 3.2-.3 6.1-.8 6.3-1 .2-.1 7-.3 15.1-.3 10.5 0 17.5.6 23.8 1.9zm-234.6 27.5c16 6.4 31.3 13.3 30.7 13.9-.2.1-4.2 2.3-8.9 4.8-8.4 4.4-16.2 8.7-23 12.5-7.8 4.4-29.8 17.7-33.7 20.4-4.2 2.9-5.5 2.7-4.9-.7.2-1 .7-5.1 1-8.9.4-3.9 1.1-9.7 1.6-13 1.1-7.6 1.7-11.9 2.5-17.5.6-4.9 3.4-19.8 4-21.6.4-1.4 9 1.5 30.7 10.1zm118.5-10.3c0 .7.3 2.6.7 4.3.3 1.6 1.1 5.7 1.6 9s1.2 7.3 1.5 9c.3 1.6.7 4.3 1 6 .3 1.6.7 5 1 7.5.4 2.5.8 6 1.1 7.8.2 1.9.7 6.4 1 10 .3 3.7.7 7.7.9 8.9.2 1.3.2 2.3 0 2.3-.3 0-4.2-2.4-8.7-5.4-11.4-7.4-32.7-19.7-48.5-28.1-7.3-3.9-13.3-7.2-13.3-7.5 0-1.3 54.1-23.2 61.6-25 0 0 .1.6.1 1.2zm-63 35.8c22.2 11.2 63.9 35.7 71.1 41.7 2 1.7 2.3 3.1 2.9 17.3.8 19.4.8 46.9 0 66.5-.8 17.4 1.3 14.2-17.2 26.1-13.8 8.8-35.7 21.4-54.2 31.1l-14.3 7.5-14.7-7.7c-18.7-9.8-31.9-17.3-50.8-29.1-21.7-13.6-19.4-10.5-20.2-26.9-.7-14.1-.6-58.9.1-70 .2-3.3.4-7.7.5-9.8.1-3.6.4-4 9.9-10.1 10.6-6.9 25.7-16 38.5-23.3 7.1-4 35.8-19.2 36.4-19.3.2 0 5.6 2.7 12 6zm-108.2 56.7c-.5 8-.5 62.4 0 70 .2 3.5.2 6.3 0 6.3-.5 0-32-23.7-35.5-26.7-1.4-1.2-5.5-4.7-9.2-7.8-3.8-3.2-6.8-6.1-6.8-6.6 0-1.2 17.8-15.9 35.3-29 8.7-6.6 16-11.9 16.2-11.9.2 0 .2 2.6 0 5.7zm202 .7c3.9 2.8 7.2 5.3 7.5 5.6.3.3 3.2 2.5 6.5 5 7 5.2 6.3 4.6 18.8 15.1 5.3 4.4 9.7 8.5 9.7 8.9 0 1.6-34.5 29.3-47 37.7l-4.5 3.1V500c0-26.9.3-40.6 1-40.2.6.3 4.2 2.8 8 5.6zM351 514.1c3 3.2 38.7 30.6 49.3 37.8 4.1 2.8 4.7 3.7 4.9 6.9 0 2 .2 4.8.3 6.2.7 6.9 1.7 16.8 2.1 19.5 1.1 7.3 1.4 9.3 1.9 13.5.3 2.5 1.6 11 3 18.9 1.4 8 2.2 14.8 1.8 15.2-1.6 1.4-26.7 7.9-42.7 11-4.8.9-4.8.9-9.8-3.6-8-7.2-17.2-7.8-25.9-1.9-2 1.4-4.5 4-5.5 5.9-1.7 3.2-2.2 3.5-6.5 3.5-2.5 0-7.1-.5-10-1-3-.6-6.7-1.3-8.2-1.5-6.5-1.2-16.1-6-20.8-10.4-10.3-9.5-12.2-22.7-6-41.1 7.7-22.9 25.6-47.8 55.1-76.7l9.5-9.3 3.5 3.3c1.9 1.7 3.7 3.4 4 3.8zm319.8 6.9c53.3 54.1 68.4 100 38.7 117.6-2.3 1.3-6.8 3.2-10 4.2-11.1 3.5-10.7 3.5-14-1.6-6.9-10.7-20.7-12.8-30.3-4.6-2.2 1.8-4.5 4.7-5.2 6.4-1.3 3.1-1.5 3.2-5.9 2.5-2.5-.3-6.2-.9-8.1-1.1-5.8-.9-26.8-5.3-32.8-6.9-3.1-.9-8.2-2.3-11.2-3.1-3-.8-5.9-1.9-6.3-2.3-.5-.5-.4-3.3.2-6.2.6-3 1.3-7 1.6-8.9.3-1.9 1-6 1.5-9s1.2-7.5 1.5-10c.3-2.5.8-5.6 1-7 .7-4.1 1.6-12.1 3-28.3.7-7 1-8 3.4-9.5 1.4-.9 2.8-1.9 3.1-2.2.3-.3 5-3.7 10.5-7.6 11-7.9 32.7-25 40.2-31.9l4.8-4.3 3.5 3.1c1.9 1.8 6.7 6.6 10.8 10.7zm-242.6 49.1c13.5 8.6 38 22.7 50 28.9 4.8 2.5 8.4 4.8 8 5.2-.4.4-5.4 2.8-11.2 5.3-5.8 2.5-11.9 5.3-13.7 6.1-1.7.7-3.4 1.4-3.8 1.4-.4 0-2.1.6-3.8 1.4-3 1.3-13.8 5.4-23.5 8.9-3.2 1.2-4.4 1.3-4.7.4-2.4-7.3-10.3-64.7-9-64.7.2 0 5.4 3.2 11.7 7.1zm155.4-4.4c-.3 1.6-.8 5.9-1.1 9.8-.3 3.8-.8 8.1-1 9.5-.2 1.4-.7 4.3-.9 6.5-1.2 9.1-5.3 33.9-6.1 36.2-.3.8-2.9.2-8.7-1.8-12.2-4.4-35-13.6-44.7-18l-8.5-3.9 18-9.8c17.6-9.6 34.1-19.4 45.9-27.1 3.3-2.2 6.3-4 6.8-4 .4-.1.5 1.1.3 2.6zm-79.3 46.2c2.3 1.1 8.2 3.8 13.1 6.1 9.5 4.4 36.8 15.3 47.6 19 3.6 1.2 6.6 2.4 6.8 2.5 1 .9-8.7 34.3-14.2 48.7-9.2 24.2-19.2 41.4-31.1 53.3-9.6 9.6-16.5 13-26.5 13-6.3 0-8.4-.5-13.5-3-11.1-5.6-23.4-19.8-33.2-38.5-5.6-10.6-14.8-33.6-17.9-45-3.6-13.1-7.5-28.3-7.2-28.4.2-.1 8.1-3.1 17.5-6.6 9.5-3.5 25.5-10.1 35.5-14.6 10.1-4.5 18.4-8.3 18.6-8.3.2-.1 2.2.8 4.5 1.8z"/><path d="M488.7 455.4c-16.6 4.8-28.9 17.2-33.2 33.6-1.9 7.1-1.3 19.1 1.2 26.2 10.3 28.5 45.2 39.7 69.6 22.2 2.8-2.1 5.9-4.7 6.8-5.8.9-1.2 2.6-3.2 3.8-4.5 8.3-9.5 11.3-30.1 6.2-42.8-5.3-13.4-15-22.9-27.9-27.5-7.2-2.6-20-3.2-26.5-1.4zM763.6 168.5c-7.7 2.7-12.2 9.6-11.4 17.6.4 3.9.3 4-2.7 3.3-5.3-1.2-8.7-.6-11.2 1.9-2.6 2.6-3.1 4.7-1.9 9.1.7 2.7.6 2.8-2.1 2.1-10.1-2.8-16.6 3-13.8 12.2 2.6 8.8 14.4 20.8 25 25.8 9.7 4.5 19.6 2.2 22.9-5.4 2.8-6.3 1.3-9.5-11.4-24.1-11-12.6-12.2-14.6-9.5-16.6 3.3-2.5 5.8-1.6 10.2 3.5 5 5.8 13 10.1 18.8 10.1 10.2 0 17.8-8.4 16.8-18.8-.4-4.1-.1-4.5 3.2-4.5 3 0 3.5.3 4.9 3.2 1.9 3.6 4.9 4.5 7.2 2 1.4-1.6 1.5-2.4.6-4.4-1.8-3.8-6.7-5.8-12.8-5.2-5.1.5-5.2.5-8-3.4-5.3-7.2-17-11.2-24.8-8.4zm19.8 8.2c4.9 4.3 4.7 9.5-.6 16.4-6.1 7.8-11.4 10.2-16.8 7.4-8.2-4.3-8.5-13.1-.5-21.1 6.3-6.4 12.5-7.4 17.9-2.7zm-39.9 34c2.4 2.7 6.2 6.8 8.5 9.3 8.1 8.6 9.5 12.5 6 16-3.9 3.9-11.4 1.9-20.8-5.7-8.7-7.1-13.1-15.6-10.6-20.4 1.6-3.3 2.6-3.7 8.2-3.8 3.9-.1 4.7.4 8.7 4.6zM180.3 192.1c-.8.8-.1 2.5 2.8 6.3 4.5 5.9 5.2 11.2 1.9 16.1-1.4 2.2-1.6 3.2-.8 4.2.9 1.1 1.7.8 4.4-1.8l3.3-3.2 6.8 6.5c14.2 13.5 19.6 18.4 22.4 20.2 8.3 5.2 21.9-5.2 21.9-16.7 0-2.9-.4-3.7-1.8-3.7-1.5 0-1.9.8-2 3.7-.3 8.1-6.9 11.6-13.6 7.1-3.9-2.7-26.6-23.7-26.6-24.7 0-.3 2.3-3 5.1-6 4.2-4.4 4.8-5.6 3.6-6.3-1.2-.6-2.9.6-6.7 4.6l-5.2 5.5-6.6-6.5c-3.7-3.5-6.9-6.4-7.2-6.4-.4 0-1.1.5-1.7 1.1zM810.1 203.4c-.9 1-.9 1.6-.1 2.1.6.4 1.5 1.8 2.1 3.2 1 2.8-.2 5.7-3.5 8.6-1.2 1-6.3 5.5-11.5 10-5.1 4.5-10.2 8.5-11.3 9-2.5.9-5.2.2-7.4-2-1.1-1.1-1.8-1.3-2.6-.5-1.3 1.3-.5 2.5 8 11.9 3.5 3.9 6.9 7.9 7.7 8.9 1.1 1.5 1.6 1.6 2.6.7.9-.9.9-1.7-.3-3.5-1-1.6-1.2-3.2-.7-5.2.9-3.2 1.5-3.8 14.3-14.8 8.4-7.2 9.3-7.7 12.6-7.2 6.1 1 7.4 2.3 9.6 9.9.5 1.6 2.1 3.6 3.5 4.4 2.4 1.3 2.9 1.3 5.3-.2 1.8-1.2 2.6-2.6 2.6-4.5 0-5.7-5.7-10.2-15.2-12.2l-5.7-1.1 3.1-2.8 3-2.7-4.2-4c-9.2-8.4-10.3-9.4-10.5-9.4-.2 0-.8.6-1.4 1.4zM171.3 232.6c-.3.8 0 2 .6 2.7.8 1 .2 1.7-2.8 3.1-10 4.3-16.2 16.7-13.1 26 1.5 4.5 6.6 8.6 10.9 8.6 4.5 0 8.1-2.1 19.4-11.1 5.8-4.7 10.7-7.9 12-7.9 3.2 0 5.6 2 6.6 5.5 1.8 6.7-3.3 15.4-11.4 19.4-4 2-5.8 2.3-11.1 1.8-4.3-.3-6.7-.1-7.4.8-1.4 1.7 15.8 9.9 17.7 8.4 1-.9 1-1.5-.2-3.2-1.3-1.9-1.1-2.1 3.4-4.2 5.4-2.6 10.9-8.8 13.5-15.4 3.5-9 .5-18.5-6.9-22.1-6.6-3.2-10.8-1.6-22.6 8.6-3.1 2.7-6.6 5.7-7.8 6.7-7 5.7-14.1-1.7-9.7-10.1 3.4-6.5 9-9.5 17.6-9.6 8.8-.1 8.5-2-.8-6.2-6-2.7-7.4-3.1-7.9-1.8zM840 253c-2.5 2.5-2.5 3.1 0 6.3 2.2 2.8 4.3 2.9 8.2.3 2.1-1.3 2.6-1.3 5.6.1 3.9 1.9 6.6 5.4 8 10.4 1.3 4.9-.5 8.6-6 12.1l-4.2 2.7-9-9.3c-12.2-12.5-19-15.3-26-10.7-10.8 7.1-5 24.6 10 30.8 3.2 1.3 4.2 2.2 3.8 3.3-1.2 2.7-1.6 6.9-1 9.4 1.4 5.5 9.9 12.4 11.7 9.5.4-.8-.4-2.3-2.2-4-4.5-4.2-3.1-6.2 11.4-15.9 17.2-11.6 18.2-12.6 18.2-19.8 0-7-2.9-13.4-8.8-19.2-7.5-7.6-15.6-10.1-19.7-6zm-6.3 21.1c2.3 1.1 6.5 4.5 9.3 7.6l5 5.5-6.1 3.9c-6.9 4.5-9 4.5-15.6.2-7.7-5-9.4-12.7-3.6-17.3 3.3-2.5 5.6-2.5 11 .1zM137.6 290.5c-5.3 1.8-9.2 5.9-12.6 13-3.4 6.9-4.4 14.3-2.7 19.9 1.9 6.7 8.6 8.6 10.8 2.9.9-2.4-.3-6.3-1.9-6.3-.5 0-1.9-1-3.1-2.1-1.9-1.8-2.2-2.8-1.7-6 1.2-7.3 6.6-13.5 11.6-13.1 1.4.1 4.7 1.2 7.3 2.4 3.5 1.6 4.6 2.6 4.1 3.7-4.6 11.4-6.4 18.5-6.5 25.8-.1 16.8 18.2 19.4 26.1 3.7 2-4.1 2.4-6.2 2.3-12.7l-.2-7.7h2.8c5.6 0 11.1-7.1 11.1-14.4 0-2.9-.4-3.6-1.9-3.6-1.3 0-1.8.7-1.8 2.7 0 3.1-3.6 6.5-6.1 5.7-.9-.3-8-3.6-15.7-7.4-7.7-3.8-14.9-7.1-16-7.4-1.1-.3-3.7.1-5.9.9zm28.3 22c2.2 2.1 2.2 11.8-.1 16.3-3.1 6.4-10.1 7.6-14.5 2.6-3.3-3.6-3.3-9.9-.2-20.1l2-6.2 5.7 3.1c3.1 1.7 6.3 3.6 7.1 4.3zM868.2 312.6c-7.2 1.9-10.6 3.8-15.7 8.9-6.6 6.8-8.4 14.2-5.5 23.1 1.5 4.4 7.2 10.9 11.4 13.1l3.1 1.6-3.1 1.5-3.1 1.4 3.2 7.7c3.4 8 6.4 10.6 6.3 5.4-.2-5.1 1.7-6.8 12.4-11.3 5.7-2.4 12.6-5.3 15.3-6.5 2.8-1.2 12.3-5.2 21.2-9 17.6-7.3 17.5-7.2 12.3-13-1.5-1.7-3.6-4.5-4.6-6.3-2.8-4.9-5-4.3-5 1.5l.1 4.8-7.5 3.7c-4.1 2.1-8 3.8-8.6 3.8-.7 0-1.1-2.5-1.1-6.3-.1-17.6-14.2-28.4-31.1-24.1zm19.9 11c4.2 2.5 6.9 7.8 6.9 13.4 0 8.4 0 8.4-14.5 14.5-12.4 5.3-13.6 5.6-16.9 4.5-1.9-.6-5-2.8-6.9-4.9-6.1-6.8-6-13.8.2-20 8.5-8.5 23.4-12.1 31.2-7.5zM85.5 337.3c-.2.6-1.1 3.9-2 7.2-.9 3.3-2.2 7.9-2.9 10.1-.9 3-.9 4.5-.2 5.5.6.8 10.1 8.1 21.1 16.4 11 8.2 20.6 15.5 21.2 16.1.7.7 1.8 1.4 2.5 1.7 2.6.9.1 1.5-8.6 2.2-4.9.4-9.7.8-10.6 1-1 .2-5.4.7-9.7 1-4.3.4-9.4.8-11.3 1-1.9.2-6.4.6-9.9 1-3.6.3-6.6.7-6.7.8-.8.8-6.2 23.2-5.8 23.9.9 1.4 2.4.9 3.1-1 1.2-3.4 3.6-5.2 6.9-5.2 1.9 0 12.7 2.5 24.1 5.5 33.1 8.9 32.7 8.7 32.5 15.4-.1 2.5.3 4.1 1.2 4.4 1.3.5 1.9-1.2 8.4-24.6.8-3.2-2.4-1.8-4.9 2-1.6 2.5-3.3 3.9-5 4.1-1.4.2-7.7-1.1-14-2.8-6.2-1.6-17.7-4.7-25.4-6.7-7.7-2-14.4-4-15-4.5-.5-.4 1.1-.8 3.5-.9 2.5 0 5.4-.2 6.4-.4s5.8-.6 10.5-1c4.7-.3 10-.8 11.6-1 5.1-.7 12.6-1.4 22.5-2.1 5.2-.4 10.2-.8 11-1 .8-.1 1.8-.3 2.1-.3 1-.1 1.7-3.7 1-4.8-.3-.5-12.6-10.1-27.4-21.3-14.7-11.2-26.6-20.5-26.4-20.7.2-.1 4.1.8 8.8 2.1 4.6 1.3 15.6 4.3 24.4 6.6 21.6 5.8 23.7 7 22.8 13.1-.2 1.8.2 2.9 1.2 3.3 1.9.7 1.5 1.5 5.9-14.9 2.6-9.7 3.2-13.1 2.3-13.7-.7-.5-1.6-.1-2.2.8-2.8 4.6-4.2 5.6-7.5 5.6-5.7-.1-52.2-13.1-54.4-15.3-1.3-1.2-2-3.1-1.9-5.3.1-3.4-2.3-6-3.2-3.3zM910.7 373.7c-.4.3-.7 2.1-.7 3.9 0 1.8-.7 4-1.5 4.8-1.7 1.6-2.7 1.9-19 5.5-14.3 3.2-17 4.5-19.6 9.7-3.8 8-.7 18.1 8.4 26.6l4.9 4.7-4.1.7c-2.4.4-4.1 1.2-4.1 2 0 1.4 2.8 15.3 3.5 17.1.8 2.4 3.4.2 3-2.5-.5-4.8 2-7.3 8.8-8.6 17.5-3.4 36.7-8.2 36.7-9.1 0-.7-.9-3.4-1.9-6.1-1-2.7-2.5-6.4-3.1-8.2-1.8-4.7-4-4.2-4 1.1 0 5.4-.9 6-15.2 9.2-6.2 1.3-12.2 2.7-13.4 3-1.5.3-3.4-.9-6.9-4.2-8.6-8.4-10.5-17.1-4.7-21.1 1.5-1.1 10.9-3.7 21.6-6.1 10.4-2.3 19.2-4.3 19.4-4.6.3-.2-.5-2.8-1.6-5.7-1.1-2.9-2.6-7-3.3-9.1-1.3-3.7-2-4.3-3.2-3zM88.1 452.1c-10.6 7.6-11.9 27.6-2.4 37.4 10.3 10.6 29.2 11.2 39.5 1.2 7.6-7.3 10-21.2 5.4-30.9-2.1-4.4-8.1-10.3-9.5-9.4-1.7 1.1-1.4 1.9 2 5.7 4.6 5.1 5.7 7.9 5.5 13.5-.2 7.1-4 12.5-10.9 15.4-4.4 1.9-6.4 2.2-13 1.7-13.7-.9-22-7.4-21-16.4.8-7 3.8-10.3 9.4-10.1 8.8.3 10.3-9 1.7-10.6-1.9-.3-3.9.4-6.7 2.5zM885.4 457.8c-8.6 5.4-8.7 22.7-.1 32.1 1.4 1.5 1.8 2.5 1 2.8-4.9 1.8-7.8 9.2-5.9 15.3 1.7 5.4 3 7.2 4.9 6.4 1.5-.5 1.5-.9.2-3.3-1.8-3.5-.1-7.2 3.7-8.2 1.4-.4 9.1-.9 17-1.2 15.5-.5 18.9-1.4 22.6-6.2 2.6-3.3 4.2-10.7 3.6-16.7-1.3-13.5-9.8-24.4-15.9-20.4-5.3 3.5-2.5 9.6 4.4 9.6 3.4 0 4.1.4 5.5 3.4 3 6.4 1.7 15.2-2.6 18-2.1 1.4-12.2 2.5-13.2 1.5-.2-.2-.7-2.7-1.1-5.4-1.7-13.3-5.6-23-10.6-26.8-3.9-2.8-9.7-3.2-13.5-.9zm12.2 10.9c1.4.9 3.4 3.3 4.5 5.4 2 4 5.1 16 4.4 16.8-.3.2-3.5.6-7.1.8-5.9.4-6.9.2-9.1-1.9-6.4-6-8-14.6-3.7-19.7 3-3.6 7-4.1 11-1.4zM126.1 506.9c-.8.5-1.2 1.8-.8 3 .3 1.2-.3 3.1-1.4 4.5-2.2 2.8-6.1 3.8-24.4 6.1-4 .6-6.3.9-15.5 2.5-3 .5-8.6 1.3-12.3 1.6-7.5.7-9.9-.4-11.1-5.2-.7-2.7-3.6-3.3-3.6-.7 0 1 .4 4.5.9 7.8.6 3.3 1.2 7.8 1.6 10 .3 2.2.9 4.3 1.3 4.7.7.6 4.2 1.5 35.7 8.9 7.2 1.7 14.8 3.6 16.9 4.3l3.9 1.2-25.2 14-25.2 13.9.5 5c.4 2.7.8 5.9 1 7 .2 1.1.7 4.4 1.1 7.2.6 4.3 1.1 5.3 2.6 5.3 1.1 0 1.8-.3 1.8-.8-.1-.4-.1-2.1 0-3.8.2-4.7 4.3-6.2 24.1-8.9 4.8-.7 6-.8 16-2.5 14.1-2.2 19.9-2.4 22-.5 1 .9 2.2 2.9 2.5 4.4.3 1.6 1.3 2.8 2.1 2.8 1.3 0 1.5-1 .9-6.1-.3-3.4-.8-7-1-8.1-.3-1.1-.7-3.8-1-6-.3-2.2-.8-4.8-1.1-5.7-.9-2.9-3-1-3.1 2.8-.1 3.9-2.3 6.9-5.6 7.7-1.2.3-7.1 1.3-13.2 2.2-12.1 1.7-15.7 2.3-19.5 3-1.4.2-4.5.7-7 1-9.1 1.2-11.5 1.6-13.5 2.2-3.3.9-1.6-.1 14.5-9 8.5-4.6 17.5-9.6 20-10.9 12-6.7 15.8-8.8 19.8-10.8 4.7-2.5 6.1-4.4 4.6-6.7-.8-1.3-31.1-9.6-42.9-11.8-7.2-1.4-24.8-6.3-23-6.5 1.1-.1 2.7-.3 3.5-.5 2.1-.4 8.3-1.4 12.8-2 5.3-.8 15.4-2.3 24.7-3.8 13.4-2.2 18.4-1 18.5 4.4 0 1.9 2.6 3.3 3.5 1.9.3-.5.3-1.9.1-3.2-.3-1.3-.8-4.1-1.1-6.3-1.4-11-2.8-19.1-3.4-19.7-.3-.4-1.2-.3-2 .1zM927.9 523.9c-.1 1.2-.3 2.5-.4 3.1-.1.5-.3 1.6-.4 2.4-.1 1.5-.6 1.5-20.1-.8-16.7-1.9-22.3-1.7-25.4 1.3-3.2 3.1-5.4 9.5-4.9 14.9.3 4.4 3.9 11.2 6 11.2s2-2.4-.3-5.8c-2.3-3.3-2.4-7.3-.2-9.9 1.3-1.6 7.2-3.3 10.1-2.8 1.2.2 5.6.6 9.7 1 4.1.3 9.3.8 11.5 1 2.2.3 5.7.7 7.9.9 2.1.3 4 .7 4.2.9.3.2.1 3.7-.4 7.6-.5 4-.6 7.4-.2 7.6 1.6 1 3-1.6 3.6-6.5.4-3 .8-6.2.9-7 .2-1.6.9-1.7 12.3-.6 6.7.7 7.2.6 7.2-1.2 0-1.6-.9-2.2-3.8-2.7-7.7-1.3-13-6.2-13.5-12.6-.3-3.9-3.6-5.6-3.8-2zM888.5 563.7c-7 1.3-12.8 5.3-16.1 11-2.8 4.7-3.5 7.1-3.5 13-.1 5.6.8 8.1 4.3 12.6 2.4 3 3.3 3.5 4.4 2.6 1.1-.9.8-1.8-1.8-5-3.7-4.6-4.2-10.7-1.1-16.5 2.9-5.7 7.2-7.6 16.5-7.2 4.2.2 8 .6 8.4 1 .4.5.2 3.2-.5 6-.6 2.9-1.3 6.3-1.6 7.6-.2 1.3-.7 3.2-1 4.2-.3 1-.8 2.7-1 3.7-.2 1-.8 3.8-1.4 6.3-1.2 5.5-.4 6.2 5.9 5.5 16.7-2 23.6-26.3 10.8-38.2-4.8-4.5-15.8-7.8-22.3-6.6zm20.1 14.9c8.7 5.8 5.7 18.9-4.8 20.8-4.5.8-4.8-.3-2.7-9.4 1.1-4.7 2.2-9.5 2.4-10.8.6-2.6 1.7-2.8 5.1-.6zM128.6 654c-5.8 1.8-10.6 8.3-10.6 14.4 0 11.1 12 18.7 21.7 13.7 8.1-4.1 11-14 6.4-21.5-3.5-5.7-11.2-8.6-17.5-6.6zM875.5 662.4c-8.5 3.8-11.5 14-6.5 22 7.4 12.1 26.1 7.5 27.8-6.9 1.2-11-11-19.7-21.3-15.1zM186.4 704c-.9.9-.8 1.9.3 4.1 1.8 3.6 1.2 5.7-3 9.6-6.2 6-39.2 31.4-41.5 32-1.6.4-3.4-.2-5.3-1.6-3.9-2.9-6.8-1.2-3.6 2.1.7.7 4.6 5.6 8.6 10.8 4.1 5.2 7.6 9.7 7.7 9.9.2.2 1 .1 1.8-.2 1.4-.5 1.3-1.1-.5-4.1-2.3-3.9-2-6.2 1.4-9.8 2.5-2.7 14.2-11.8 15.2-11.8.9 0 2.3 1.6 7.4 8.3 5.5 7.2 11.3 12 16.5 13.7 7.9 2.6 16.9-.5 22.4-7.8 2.2-2.9 2.7-4.5 2.7-9.6 0-8.1-3-13.9-14.8-28.7-5-6.3-10.3-13-11.7-14.8-1.9-2.4-2.8-2.9-3.6-2.1zm15.1 24.2c9.7 11.3 10 20.5.9 27.4-2.5 1.9-5.1 2.9-8.7 3.2-6.5.5-9.9-1.6-17.3-10.9l-5.2-6.5 11.2-8.7c6.1-4.8 12.1-8.7 13.3-8.7 1.3 0 3.6 1.7 5.8 4.2zM831.9 705.3c-9.1 12.5-11.1 15.9-9.9 16.7.8.5 2.4 0 4.2-1.3l2.8-2.1 2.8 2.1c1.5 1.1 6 7.1 10 13.4 9.4 14.8 9.5 15 8 14.4-.7-.2-7.1-1.8-14.3-3.5-7.1-1.7-14.6-3.5-16.6-4-3.8-1.1-5.3-3.5-3.8-6.2.6-1 .4-2-.5-2.7-1-.8-2.4.5-6.5 6.2-5.8 7.9-16.9 19.9-18.2 19.5-.4-.2-2.7-2.1-5.1-4.3-8.5-7.8-8.4-7.7-9.7-6.1-1 1.1-.6 2.1 1.7 4.8 5.8 6.6 6.5 10.3 3.2 16.9-1.9 3.5-1.9 4-.4 4.6 1 .4 2.4-.4 3.9-2.2 1.3-1.5 2.8-2.5 3.3-2.3.9.3 14.7 12.6 23.2 20.7 7.6 7.2 14.6 7.6 21.1 1.1 3.8-3.8 5.9-8.3 5.9-13 0-3.4-.3-4.1-1.7-3.8-1.1.2-1.8 1.3-1.9 2.8-.1 1.4-.2 3.3-.3 4.2-.2 2.6-4.1 5.8-7.1 5.8-2.5 0-9-3.7-12-6.9-.8-.9-5.9-5.6-11.3-10.5l-9.8-8.9 5.1-4.9c2.9-2.7 6.2-5.3 7.5-5.8 1.6-.6 6.3 0 15.7 2.1 7.3 1.7 13.8 3.2 14.3 3.3.6.1 5.9 1.3 11.8 2.6l10.8 2.5 3.1 4.9c2.4 3.6 3.2 6.1 3.2 9.4l.1 4.6-4.8 1.4c-3.2.9-5.1 2-5.6 3.5-2.9 7.9 7.1 10.3 12.6 3 4.1-5.4 3.9-12.8-.7-21.9-1.8-3.8-3.8-7.1-4.2-7.2-.4-.2-.8-.7-.8-1.2 0-.4-5.3-9.5-11.7-20.2-13-21.5-14.6-25.1-13.4-29.6 1.4-4.7-1.1-5.9-4-1.9z"/><path d="M219.2 746.2c-.8.8-.6 1.8.8 3.6 3.9 4.8 3.1 6.1-14.5 24.8-24.9 26.5-24 25.8-29.5 22.9-1.7-.9-3.6-1.3-4.2-.9-.7.4 2.9 4.5 9.3 10.5 7.5 7 10.7 9.4 11.6 8.7.9-.7.7-1.6-.9-3.8-3-4.1-1.8-6.2 9.6-18.4 9-9.8 10.1-10.6 13.5-10.6 5.7.1 14.2 4 16.7 7.8 3.6 5.3 2.4 8-9 20.1-10.8 11.4-12.8 13.1-15.6 13.1-1.4 0-3.5-.7-4.7-1.5-1.6-1.1-2.4-1.2-2.9-.4-.7 1.2 17.7 19.9 19.4 19.9 1.9 0 1.9-1.3.1-4.5-3-5-2.8-5.4 14.3-23.3 7.2-7.6 10-12.4 9.3-16-1.5-8-10.7-16.1-20-17.7-8-1.4-8-1.1-.6-8.8 3.8-4 8.7-9.2 10.9-11.6l4-4.4-2.1-1.6c-1.2-.9-3.5-2.3-5.2-3.1-1.6-.8-4.4-2.4-6.1-3.6-2.3-1.7-3.4-2-4.2-1.2zM770.8 780.5c-21.2 7.8-22.1 35.7-1.6 47.1 4.5 2.4 6.4 2.9 12.3 2.9 8.3-.1 13.2-2.3 18.9-8.5 4.5-5.1 5.8-8 6.1-14.7.3-5.7-.5-7.6-2.6-6.8-1 .4-1.3 1.9-1.1 5.3.3 6.1-2.9 11.8-8.3 14.9-7.4 4.2-15 2.3-23.4-5.8l-4.4-4.2 4.5-4.1c7-6.5 18.7-16.8 20.6-18.2 2.4-1.8.7-4.3-4.8-7.2-5-2.5-10.6-2.7-16.2-.7zm9.5 7.8l2.9 2-5.1 4.4c-2.8 2.5-7 6.2-9.3 8.3-5 4.4-6.3 4-7.6-2.3-.7-3.3-.5-5 .9-7.8 3.7-7.5 11.3-9.4 18.2-4.6zM718.4 795.5c-3.2 4.9 1.1 10.6 6.9 9.1 4.5-1.1 5.3-8.1 1.3-10.8-2.4-1.7-6.6-.8-8.2 1.7z"/><path d="M245 800.8c0 1.1.6 2.5 1.4 3.1 1.4 1.2 1.5 5.4.2 11.1-.3 1.4-.8 3.8-1.2 5.5-1.5 7.5-7.5 35.2-8 36.7-.6 2-7.5 6.2-12.7 7.6-3.3.9-4.1.8-5.8-.9-1-1-1.9-2.7-1.9-3.7 0-5.3-7.6-8.6-10-4.3-1.8 3.4-1.1 6.2 2.3 9.6 8.6 8.6 14.5 6.6 53.2-17.5 19.8-12.4 21.8-13.3 27.3-12.7 2.3.3 4.5 0 4.9-.6.6-1.1-.5-2-11.5-9.7-5.9-4.2-7.3-4.8-7.8-3.5-.4.9.1 2.4 1 3.4 4 4.5 2 6.8-16.7 19-9.1 6-10.7 6.7-10.2 4.8 3.4-15.3 7.7-33.2 8.1-33.7.3-.3 2.2-.5 4.1-.5 2 0 3.8-.5 3.9-1 .3-1-15.8-12.9-19.1-14.1-1-.4-1.5 0-1.5 1.4zM729.7 814.4c-4.4 4.2-6.5 6.9-6.1 7.9.5 1.3.9 1.3 3.2.1 5.7-2.9 6.2-2.6 19.1 15.1 8.6 11.8 9.5 14.4 5.9 18.2-1.6 1.7-1.9 2.6-1.1 3.4.9.9 2.6.2 6.5-2.7 13.6-9.8 16.7-12.5 16.1-14-.3-.9-.9-1.1-1.7-.5-2 1.6-7 2.1-8.7.8-.9-.6-6.9-8.4-13.4-17.2-6.5-8.8-12.1-16.3-12.5-16.8-.3-.4-3.6 2.1-7.3 5.7zM707.2 828.2c-6.5 2.4-14.4 9.5-16.4 14.8-4.8 12 2 28.2 14.4 34.4 5.9 3 10.3 3.2 17.5 1.1 10.4-3.1 17.9-11.1 19-20.5.6-5 .5-5.2-1.4-4.2-1.2.7-2.3 2.6-2.6 4.7-.9 5.3-4.4 10.3-8.8 12.5-4.5 2.4-11.8 2.6-15.8.5-4.5-2.3-10.8-10.2-13.1-16.1-4.5-12.2-1-21.1 9-22.9 4.5-.8 6.8.2 8.6 3.6 2.6 5.1 7.9 5.6 10.4.9.7-1.3.7-2.6-.1-4.3-2.6-5.6-12.1-7.7-20.7-4.5zM292.4 838.4c-6.6 2.9-9.2 10.2-5.9 16.5.8 1.6 5.4 6.6 10.3 11.2s9.4 9.5 10.1 10.7c1.9 3.5.5 7.1-3.2 8.7-2.8 1.1-4.3 1.2-9.3.6-.6 0-3.1-1.5-5.7-3.2-5.8-3.8-10-11.7-9.6-17.8.3-3.5-1.3-7.3-2.4-6-.3.2-1.7 4.2-3.2 8.7-2 6.3-2.4 8.7-1.6 9.5.9.9 1.6.8 3.1-.1 1.8-1.1 2.3-.8 4.6 2.8 4.8 7.2 14.9 12.1 23.7 11.5 10.5-.6 17.7-10.6 13.6-18.8-.6-1.2-5.7-6.7-11.5-12.2-10.7-10.3-11.7-12.2-8.8-16 1.1-1.5 2.7-2 6.3-2 8.5 0 14.9 7.1 15.9 17.7.7 7.3 2.6 6.7 5.1-1.5 1.1-4 2.1-7.8 2.1-8.5 0-1.5-2.2-1.6-3.7-.1-.7.7-1.7.1-3.2-2.4-5.3-8.6-18-13.1-26.7-9.3zM348.5 839.4c-4.2 3-1.4 10.6 4 10.6 3.5 0 5.8-2.4 5.8-6s-2.3-6-5.8-6c-1.2 0-3 .6-4 1.4zM614.8 849.8c-1 .2-1.8 1.1-1.8 2.1 0 1.6-.8 1.8-6.8 1.3-11.8-.8-23.7 3.6-28.9 10.6-5.2 7-5.1 16.3.3 21.7 5.5 5.5 7.6 6 26.4 6.2 9.6.1 18.8.6 20.4 1.1 7.3 2 9.3 12.2 3.9 19-4.8 6-10.4 8.5-18.7 8.5-8.5 0-15.6-2.8-22.8-9.2-3-2.6-5.2-3.9-6.2-3.5-.9.3-1.6.9-1.6 1.2 0 .3 2.7 5.2 6.1 10.9 4.3 7.3 6.7 10.3 8 10.3 1 0 2-.5 2-1 .1-.6.3-1.5.4-2 .1-.6.3-1.5.4-2.1 0-.7.8-.8 1.9-.4.9.4 4.9.9 8.8 1.1 17.3.7 32.5-9.6 34.7-23.4.8-4.8-1.9-12.6-5.4-16.1-4.3-4.4-8.8-5.2-28.9-5.4-17.7-.2-18-.2-20.5-2.7-7.5-7.6-.5-18 13.3-19.7 6.4-.7 13.9 1.6 20.5 6.3 4.5 3.2 6.7 3.7 6.7 1.3 0-.5-2.4-4.4-5.2-8.7-3.8-5.6-5.8-7.7-7-7.4zM659.5 853.4c-6.3 2-9.9 4.2-13.8 8.5-10.6 11.7-5.5 33.8 9.6 41.3 12.1 6.1 30.5-1 35.1-13.5 3.8-10.3 1.7-20.1-6.2-28.9-6.6-7.3-16-10.1-24.7-7.4zm10.4 6.9c7.1 4.3 13.7 18.7 12.9 27.9-.5 4.4-1.1 5.7-4.2 8.5-1.9 1.8-4.4 3.3-5.3 3.4-1 0-2.5.2-3.4.4-3.2.6-9.8-3.3-12.9-7.7-9-12.3-10.2-26.5-2.7-32.2 5.3-4 9.3-4.1 15.6-.3zM332.5 856.1c-.5.7.5 2.1 2.4 3.6 1.8 1.4 3.1 3.3 3.1 4.6-.1 2.9-11.1 29.2-13.4 31.8-1.4 1.7-2.6 2-5.6 1.6-2.7-.3-4-.1-4.4.8-.3.9 3.3 2.9 11.6 6.4 13 5.5 14.8 5.9 14.8 3.6 0-.8-.4-1.5-.8-1.5-.5 0-1.8-.9-3.1-2.1-3-2.8-2.7-4.1 6.4-25.8 4.2-10.1 7.2-18.7 6.8-19.2-.4-.4-3.7-1.5-7.3-2.4-3.6-.9-7.2-1.8-8.2-2.1-.9-.3-2 0-2.3.7zM368.7 870.8c-12.1 3.9-20.7 21.4-16.7 33.8 4.5 14.2 22.4 22.1 35.7 15.9 5.5-2.5 7.1-4.1 5.6-5.6-.6-.6-2.9 0-6.3 1.7-6.8 3.4-13.2 3-18.6-1.1-7.9-6.1-9.3-17.3-3.4-29.1 5.3-10.7 12.1-14.2 20.4-10.6 5.7 2.6 7.4 5.7 5.8 10.9-1.3 4.4-.2 7 3.4 7.9 6.2 1.6 8.8-7.4 4.1-14-2.9-4.1-4.3-5.3-10.2-8.1-6.4-3.1-13.6-3.7-19.8-1.7zM417.6 881.5c-7.9 2-12.9 9-11.8 16.3.5 3.5 7.1 8.2 18.4 13.3 11.4 5.2 14.3 7.9 13.2 12.3-.8 3.5-5.8 6.6-10.4 6.6-10.9 0-18.6-6.3-22.4-18.3-.3-.9-1.2-1.7-2.1-1.7-1.2 0-1.5 1.6-1.5 9.5 0 8.1.2 9.5 1.6 9.5.9 0 2.3-.8 3-1.8 1.2-1.6 1.4-1.6 3.6.5 7 6.6 21 8.6 28.9 4.2 6.2-3.5 8.4-7 8.4-13.4 0-6.3-2.3-9.5-9.5-12.7-22.8-10.4-23.3-10.8-20.9-16.1 4.3-9.6 21.6-3.5 26 9.1.6 1.8 1.7 3.2 2.5 3.2 1.1 0 1.4-1.8 1.4-7.9 0-8.3-1.2-10.9-3.6-7.7-1.2 1.7-1.5 1.7-4.6-.7-6-4.4-13.3-5.9-20.2-4.2zM508.5 893.1c-12.7 3.9-14.2 21.4-2.5 27.6 5.4 2.9 9.2 2.9 14.2.1 8.5-4.8 10.6-14.5 4.8-22.4-3.5-4.8-10.7-7.1-16.5-5.3z"/></svg>